<mxfile host="65bd71144e">
    <diagram name="P치gina-1" id="rmCfl0JLRaQk26s9B4fD">
        <mxGraphModel dx="546" dy="413" grid="1" gridSize="10" guides="1" tooltips="1" connect="1" arrows="1" fold="1" page="1" pageScale="1" pageWidth="1169" pageHeight="826" math="0" shadow="0">
            <root>
                <mxCell id="0"/>
                <mxCell id="1" parent="0"/>
                <mxCell id="yvp51z9Jh3I_EzKP5bKD-22" value="&amp;lt;&amp;lt;includes&amp;gt;&amp;gt;" style="edgeLabel;html=1;align=center;verticalAlign=middle;resizable=0;points=[];fontSize=9;" parent="1" vertex="1" connectable="0">
                    <mxGeometry x="430.0021631003757" y="180.00334035518796" as="geometry"/>
                </mxCell>
                <mxCell id="-Jx4wpZNktJ247E23Xo_-13" style="rounded=0;orthogonalLoop=1;jettySize=auto;html=1;exitX=0.75;exitY=0.1;exitDx=0;exitDy=0;exitPerimeter=0;entryX=0;entryY=0.5;entryDx=0;entryDy=0;endArrow=none;endFill=0;" parent="1" source="9z3Kp4e7Dxmu1gcADGb1-1" target="9z3Kp4e7Dxmu1gcADGb1-3" edge="1">
                    <mxGeometry relative="1" as="geometry"/>
                </mxCell>
                <mxCell id="-Jx4wpZNktJ247E23Xo_-14" style="rounded=0;orthogonalLoop=1;jettySize=auto;html=1;exitX=0.75;exitY=0.1;exitDx=0;exitDy=0;exitPerimeter=0;entryX=0;entryY=0.5;entryDx=0;entryDy=0;endArrow=none;endFill=0;" parent="1" source="9z3Kp4e7Dxmu1gcADGb1-1" target="9z3Kp4e7Dxmu1gcADGb1-9" edge="1">
                    <mxGeometry relative="1" as="geometry"/>
                </mxCell>
                <mxCell id="-Jx4wpZNktJ247E23Xo_-15" style="rounded=0;orthogonalLoop=1;jettySize=auto;html=1;exitX=0.75;exitY=0.1;exitDx=0;exitDy=0;exitPerimeter=0;entryX=0;entryY=0.5;entryDx=0;entryDy=0;endArrow=none;endFill=0;" parent="1" source="9z3Kp4e7Dxmu1gcADGb1-1" target="9z3Kp4e7Dxmu1gcADGb1-5" edge="1">
                    <mxGeometry relative="1" as="geometry"/>
                </mxCell>
                <mxCell id="-Jx4wpZNktJ247E23Xo_-16" style="rounded=0;orthogonalLoop=1;jettySize=auto;html=1;exitX=0.75;exitY=0.1;exitDx=0;exitDy=0;exitPerimeter=0;entryX=0;entryY=0.5;entryDx=0;entryDy=0;endArrow=none;endFill=0;" parent="1" source="9z3Kp4e7Dxmu1gcADGb1-1" target="-Jx4wpZNktJ247E23Xo_-1" edge="1">
                    <mxGeometry relative="1" as="geometry"/>
                </mxCell>
                <mxCell id="-Jx4wpZNktJ247E23Xo_-18" style="rounded=0;orthogonalLoop=1;jettySize=auto;html=1;exitX=1;exitY=1;exitDx=0;exitDy=0;exitPerimeter=0;entryX=0;entryY=0.5;entryDx=0;entryDy=0;endArrow=none;endFill=0;" parent="1" source="9z3Kp4e7Dxmu1gcADGb1-1" target="-Jx4wpZNktJ247E23Xo_-3" edge="1">
                    <mxGeometry relative="1" as="geometry"/>
                </mxCell>
                <mxCell id="-Jx4wpZNktJ247E23Xo_-19" style="rounded=0;orthogonalLoop=1;jettySize=auto;html=1;exitX=1;exitY=1;exitDx=0;exitDy=0;exitPerimeter=0;entryX=0;entryY=0.5;entryDx=0;entryDy=0;endArrow=none;endFill=0;" parent="1" source="9z3Kp4e7Dxmu1gcADGb1-1" target="-Jx4wpZNktJ247E23Xo_-4" edge="1">
                    <mxGeometry relative="1" as="geometry"/>
                </mxCell>
                <mxCell id="-Jx4wpZNktJ247E23Xo_-21" style="rounded=0;orthogonalLoop=1;jettySize=auto;html=1;exitX=1;exitY=1;exitDx=0;exitDy=0;exitPerimeter=0;entryX=0;entryY=0.5;entryDx=0;entryDy=0;endArrow=none;endFill=0;" parent="1" source="9z3Kp4e7Dxmu1gcADGb1-1" target="-Jx4wpZNktJ247E23Xo_-5" edge="1">
                    <mxGeometry relative="1" as="geometry"/>
                </mxCell>
                <mxCell id="-Jx4wpZNktJ247E23Xo_-22" style="rounded=0;orthogonalLoop=1;jettySize=auto;html=1;exitX=1;exitY=1;exitDx=0;exitDy=0;exitPerimeter=0;entryX=0;entryY=0.5;entryDx=0;entryDy=0;endArrow=none;endFill=0;" parent="1" source="9z3Kp4e7Dxmu1gcADGb1-1" target="-Jx4wpZNktJ247E23Xo_-11" edge="1">
                    <mxGeometry relative="1" as="geometry"/>
                </mxCell>
                <mxCell id="yvp51z9Jh3I_EzKP5bKD-23" style="rounded=0;orthogonalLoop=1;jettySize=auto;html=1;exitX=0.75;exitY=0.1;exitDx=0;exitDy=0;exitPerimeter=0;entryX=0;entryY=1;entryDx=0;entryDy=0;endArrow=none;endFill=0;" parent="1" source="9z3Kp4e7Dxmu1gcADGb1-1" target="yvp51z9Jh3I_EzKP5bKD-18" edge="1">
                    <mxGeometry relative="1" as="geometry"/>
                </mxCell>
                <mxCell id="yvp51z9Jh3I_EzKP5bKD-25" style="rounded=0;orthogonalLoop=1;jettySize=auto;html=1;exitX=0.75;exitY=0.1;exitDx=0;exitDy=0;exitPerimeter=0;entryX=0;entryY=1;entryDx=0;entryDy=0;endArrow=none;endFill=0;" parent="1" source="9z3Kp4e7Dxmu1gcADGb1-1" target="yvp51z9Jh3I_EzKP5bKD-19" edge="1">
                    <mxGeometry relative="1" as="geometry"/>
                </mxCell>
                <mxCell id="9z3Kp4e7Dxmu1gcADGb1-1" value="Administrador" style="shape=umlActor;verticalLabelPosition=bottom;verticalAlign=top;html=1;" parent="1" vertex="1">
                    <mxGeometry x="160" y="300" width="30" height="60" as="geometry"/>
                </mxCell>
                <mxCell id="9z3Kp4e7Dxmu1gcADGb1-2" value="Interfaz local" style="shape=umlFrame;whiteSpace=wrap;html=1;pointerEvents=0;width=90;height=30;" parent="1" vertex="1">
                    <mxGeometry x="290" y="40" width="390" height="640" as="geometry"/>
                </mxCell>
                <mxCell id="9z3Kp4e7Dxmu1gcADGb1-3" value="Identificarse/Login" style="ellipse;whiteSpace=wrap;html=1;" parent="1" vertex="1">
                    <mxGeometry x="415" y="60" width="130" height="50" as="geometry"/>
                </mxCell>
                <mxCell id="9z3Kp4e7Dxmu1gcADGb1-5" value="Ver cola de&lt;br&gt;ejecuci칩n" style="ellipse;whiteSpace=wrap;html=1;" parent="1" vertex="1">
                    <mxGeometry x="415" y="120" width="130" height="50" as="geometry"/>
                </mxCell>
                <mxCell id="9z3Kp4e7Dxmu1gcADGb1-9" value="Monitorizar equipo" style="ellipse;whiteSpace=wrap;html=1;" parent="1" vertex="1">
                    <mxGeometry x="415" y="250" width="130" height="50" as="geometry"/>
                </mxCell>
                <mxCell id="yvp51z9Jh3I_EzKP5bKD-15" style="rounded=0;orthogonalLoop=1;jettySize=auto;html=1;exitX=0;exitY=1;exitDx=0;exitDy=0;entryX=1;entryY=0;entryDx=0;entryDy=0;endArrow=classic;endFill=1;" parent="1" source="-Jx4wpZNktJ247E23Xo_-1" target="-Jx4wpZNktJ247E23Xo_-2" edge="1">
                    <mxGeometry relative="1" as="geometry"/>
                </mxCell>
                <mxCell id="-Jx4wpZNktJ247E23Xo_-1" value="Administrar archivos almacenados" style="ellipse;whiteSpace=wrap;html=1;" parent="1" vertex="1">
                    <mxGeometry x="415" y="310" width="130" height="50" as="geometry"/>
                </mxCell>
                <mxCell id="-Jx4wpZNktJ247E23Xo_-2" value="Cargar nuevo&lt;br&gt;archivo" style="ellipse;whiteSpace=wrap;html=1;" parent="1" vertex="1">
                    <mxGeometry x="300" y="370" width="130" height="50" as="geometry"/>
                </mxCell>
                <mxCell id="-Jx4wpZNktJ247E23Xo_-3" value="Control manual&lt;br&gt;Calibraci칩n" style="ellipse;whiteSpace=wrap;html=1;" parent="1" vertex="1">
                    <mxGeometry x="415" y="443" width="130" height="50" as="geometry"/>
                </mxCell>
                <mxCell id="-Jx4wpZNktJ247E23Xo_-4" value="Administrar solicitudes&lt;br&gt;de ejecuci칩n" style="ellipse;whiteSpace=wrap;html=1;" parent="1" vertex="1">
                    <mxGeometry x="415" y="503" width="130" height="50" as="geometry"/>
                </mxCell>
                <mxCell id="-Jx4wpZNktJ247E23Xo_-5" value="Administrar usuarios" style="ellipse;whiteSpace=wrap;html=1;" parent="1" vertex="1">
                    <mxGeometry x="415" y="563" width="130" height="50" as="geometry"/>
                </mxCell>
                <mxCell id="-Jx4wpZNktJ247E23Xo_-6" value="Vista previa&lt;br&gt;de resultado" style="ellipse;whiteSpace=wrap;html=1;" parent="1" vertex="1">
                    <mxGeometry x="540" y="370" width="130" height="50" as="geometry"/>
                </mxCell>
                <mxCell id="-Jx4wpZNktJ247E23Xo_-9" style="rounded=0;orthogonalLoop=1;jettySize=auto;html=1;exitX=1;exitY=1;exitDx=0;exitDy=0;entryX=0;entryY=0;entryDx=0;entryDy=0;" parent="1" source="-Jx4wpZNktJ247E23Xo_-1" target="-Jx4wpZNktJ247E23Xo_-6" edge="1">
                    <mxGeometry relative="1" as="geometry">
                        <mxPoint x="550" y="370" as="sourcePoint"/>
                        <mxPoint x="670" y="370" as="targetPoint"/>
                    </mxGeometry>
                </mxCell>
                <mxCell id="-Jx4wpZNktJ247E23Xo_-10" value="&lt;font style=&quot;font-size: 9px;&quot;&gt;&amp;lt;&amp;lt;includes&amp;gt;&amp;gt;&lt;/font&gt;" style="edgeLabel;html=1;align=center;verticalAlign=middle;resizable=0;points=[];" parent="-Jx4wpZNktJ247E23Xo_-9" vertex="1" connectable="0">
                    <mxGeometry x="0.1667" y="2" relative="1" as="geometry">
                        <mxPoint x="14" y="-5" as="offset"/>
                    </mxGeometry>
                </mxCell>
                <mxCell id="-Jx4wpZNktJ247E23Xo_-11" value="Administrar herramientas" style="ellipse;whiteSpace=wrap;html=1;" parent="1" vertex="1">
                    <mxGeometry x="415" y="623" width="130" height="50" as="geometry"/>
                </mxCell>
                <mxCell id="5" style="edgeStyle=none;html=1;exitX=0.25;exitY=0.1;exitDx=0;exitDy=0;exitPerimeter=0;entryX=1;entryY=0.5;entryDx=0;entryDy=0;endArrow=none;endFill=0;" parent="1" source="2" target="-Jx4wpZNktJ247E23Xo_-1" edge="1">
                    <mxGeometry relative="1" as="geometry"/>
                </mxCell>
                <mxCell id="10" style="edgeStyle=none;html=1;exitX=0.25;exitY=0.1;exitDx=0;exitDy=0;exitPerimeter=0;entryX=1;entryY=0.5;entryDx=0;entryDy=0;endArrow=none;endFill=0;" parent="1" source="2" target="9z3Kp4e7Dxmu1gcADGb1-9" edge="1">
                    <mxGeometry relative="1" as="geometry"/>
                </mxCell>
                <mxCell id="11" style="edgeStyle=none;html=1;exitX=0.25;exitY=0.1;exitDx=0;exitDy=0;exitPerimeter=0;entryX=1;entryY=0.5;entryDx=0;entryDy=0;endArrow=none;endFill=0;" parent="1" source="2" target="9z3Kp4e7Dxmu1gcADGb1-5" edge="1">
                    <mxGeometry relative="1" as="geometry"/>
                </mxCell>
                <mxCell id="12" style="edgeStyle=none;html=1;exitX=0.25;exitY=0.1;exitDx=0;exitDy=0;exitPerimeter=0;entryX=1;entryY=1;entryDx=0;entryDy=0;endArrow=none;endFill=0;" parent="1" source="2" target="9z3Kp4e7Dxmu1gcADGb1-3" edge="1">
                    <mxGeometry relative="1" as="geometry"/>
                </mxCell>
                <mxCell id="yvp51z9Jh3I_EzKP5bKD-24" style="rounded=0;orthogonalLoop=1;jettySize=auto;html=1;exitX=0.25;exitY=0.1;exitDx=0;exitDy=0;exitPerimeter=0;entryX=1;entryY=1;entryDx=0;entryDy=0;endArrow=none;endFill=0;" parent="1" source="2" target="yvp51z9Jh3I_EzKP5bKD-19" edge="1">
                    <mxGeometry relative="1" as="geometry"/>
                </mxCell>
                <mxCell id="2" value="Usuario" style="shape=umlActor;verticalLabelPosition=bottom;verticalAlign=top;html=1;" parent="1" vertex="1">
                    <mxGeometry x="760" y="300" width="30" height="60" as="geometry"/>
                </mxCell>
                <mxCell id="yvp51z9Jh3I_EzKP5bKD-16" value="&amp;lt;&amp;lt;includes&amp;gt;&amp;gt;" style="edgeLabel;html=1;align=center;verticalAlign=middle;resizable=0;points=[];fontSize=9;" parent="1" vertex="1" connectable="0">
                    <mxGeometry x="400.0021631003757" y="360.00334035518796" as="geometry"/>
                </mxCell>
                <mxCell id="yvp51z9Jh3I_EzKP5bKD-17" style="rounded=0;orthogonalLoop=1;jettySize=auto;html=1;exitX=1;exitY=0;exitDx=0;exitDy=0;entryX=0.315;entryY=0.98;entryDx=0;entryDy=0;endArrow=classic;endFill=1;entryPerimeter=0;" parent="1" source="yvp51z9Jh3I_EzKP5bKD-18" target="9z3Kp4e7Dxmu1gcADGb1-5" edge="1">
                    <mxGeometry relative="1" as="geometry">
                        <mxPoint x="434" y="163" as="targetPoint"/>
                    </mxGeometry>
                </mxCell>
                <mxCell id="yvp51z9Jh3I_EzKP5bKD-18" value="Ordenar tareas" style="ellipse;whiteSpace=wrap;html=1;" parent="1" vertex="1">
                    <mxGeometry x="335" y="185" width="130" height="50" as="geometry"/>
                </mxCell>
                <mxCell id="yvp51z9Jh3I_EzKP5bKD-20" style="rounded=0;orthogonalLoop=1;jettySize=auto;html=1;exitX=0;exitY=0;exitDx=0;exitDy=0;entryX=0.627;entryY=0.972;entryDx=0;entryDy=0;entryPerimeter=0;" parent="1" source="yvp51z9Jh3I_EzKP5bKD-19" target="9z3Kp4e7Dxmu1gcADGb1-5" edge="1">
                    <mxGeometry relative="1" as="geometry">
                        <mxPoint x="509.0380592228744" y="190.3423304703363" as="sourcePoint"/>
                        <mxPoint x="495.34000000000003" y="169.67000000000004" as="targetPoint"/>
                    </mxGeometry>
                </mxCell>
                <mxCell id="yvp51z9Jh3I_EzKP5bKD-21" value="&amp;lt;&amp;lt;includes&amp;gt;&amp;gt;" style="edgeLabel;html=1;align=center;verticalAlign=middle;resizable=0;points=[];fontSize=9;" parent="yvp51z9Jh3I_EzKP5bKD-20" vertex="1" connectable="0">
                    <mxGeometry x="0.1667" y="2" relative="1" as="geometry">
                        <mxPoint x="31" y="1" as="offset"/>
                    </mxGeometry>
                </mxCell>
                <mxCell id="yvp51z9Jh3I_EzKP5bKD-19" value="Cancelar tareas&lt;br&gt;en cola" style="ellipse;whiteSpace=wrap;html=1;" parent="1" vertex="1">
                    <mxGeometry x="490" y="185" width="130" height="50" as="geometry"/>
                </mxCell>
            </root>
        </mxGraphModel>
    </diagram>
</mxfile>